<mxfile host="Electron" agent="Mozilla/5.0 (Macintosh; Intel Mac OS X 10_15_7) AppleWebKit/537.36 (KHTML, like Gecko) draw.io/26.1.1 Chrome/132.0.6834.210 Electron/34.3.3 Safari/537.36" version="26.1.1">
  <diagram name="PÃ gina-1" id="oy8qX8HP7gqxA2Tt80Pt">
    <mxGraphModel dx="307" dy="303" grid="1" gridSize="5" guides="1" tooltips="1" connect="1" arrows="1" fold="1" page="1" pageScale="1" pageWidth="827" pageHeight="1169" math="0" shadow="0">
      <root>
        <mxCell id="0" />
        <mxCell id="1" parent="0" />
        <mxCell id="RuAcS0BkeenV3SlfDcj3-1" value="COUNTRY" style="whiteSpace=wrap;html=1;align=center;fontSize=10;" parent="1" vertex="1">
          <mxGeometry x="15" y="20" width="100" height="40" as="geometry" />
        </mxCell>
        <mxCell id="RuAcS0BkeenV3SlfDcj3-25" value="AIRLINE" style="whiteSpace=wrap;html=1;align=center;fontSize=10;" parent="1" vertex="1">
          <mxGeometry x="190.23000000000002" y="20" width="100" height="40" as="geometry" />
        </mxCell>
        <mxCell id="oEbuWqtRimP7kOQXB0fw-2" style="edgeStyle=orthogonalEdgeStyle;rounded=0;orthogonalLoop=1;jettySize=auto;html=1;entryX=0;entryY=0.5;entryDx=0;entryDy=0;endArrow=oval;endFill=0;strokeColor=#000000;" parent="1" source="oEbuWqtRimP7kOQXB0fw-1" target="RuAcS0BkeenV3SlfDcj3-25" edge="1">
          <mxGeometry relative="1" as="geometry" />
        </mxCell>
        <mxCell id="oEbuWqtRimP7kOQXB0fw-9" value="N" style="edgeLabel;html=1;align=center;verticalAlign=bottom;resizable=0;points=[];fontSize=10;labelPosition=center;verticalLabelPosition=top;fontColor=#000000;labelBackgroundColor=none;" parent="oEbuWqtRimP7kOQXB0fw-2" vertex="1" connectable="0">
          <mxGeometry x="0.6722" y="-1" relative="1" as="geometry">
            <mxPoint x="-7" as="offset" />
          </mxGeometry>
        </mxCell>
        <mxCell id="oEbuWqtRimP7kOQXB0fw-3" style="edgeStyle=orthogonalEdgeStyle;rounded=0;orthogonalLoop=1;jettySize=auto;html=1;exitX=0;exitY=0.5;exitDx=0;exitDy=0;entryX=1;entryY=0.5;entryDx=0;entryDy=0;endArrow=ERone;endFill=0;fontColor=#000000;strokeColor=#000000;" parent="1" source="oEbuWqtRimP7kOQXB0fw-1" target="RuAcS0BkeenV3SlfDcj3-1" edge="1">
          <mxGeometry relative="1" as="geometry" />
        </mxCell>
        <mxCell id="oEbuWqtRimP7kOQXB0fw-18" value="1" style="edgeLabel;html=1;align=center;verticalAlign=bottom;resizable=0;points=[];labelPosition=center;verticalLabelPosition=top;fontColor=#000000;labelBackgroundColor=none;" parent="oEbuWqtRimP7kOQXB0fw-3" vertex="1" connectable="0">
          <mxGeometry x="0.7397" y="1" relative="1" as="geometry">
            <mxPoint x="6" as="offset" />
          </mxGeometry>
        </mxCell>
        <mxCell id="oEbuWqtRimP7kOQXB0fw-1" value="&lt;span style=&quot;text-align: left;&quot;&gt;HAS&amp;nbsp;&lt;/span&gt;HEADQUARTERS IN" style="shape=rhombus;perimeter=rhombusPerimeter;html=1;align=center;fontSize=10;labelPosition=center;verticalLabelPosition=top;verticalAlign=bottom;fontColor=#000000;strokeColor=#000000;spacing=15;" parent="1" vertex="1">
          <mxGeometry x="140" y="30" width="20" height="20" as="geometry" />
        </mxCell>
      </root>
    </mxGraphModel>
  </diagram>
</mxfile>
